<svg xmlns="http://www.w3.org/2000/svg" viewBox="0 0 128 160" x="0px" y="0px"><title>20</title><g data-name="20"><path fill="white" d="M107.10742,116.10742H20.89258a9.00984,9.00984,0,0,1-9-9V20.89258a9.00984,9.00984,0,0,1,9-9h86.21484a9.00984,9.00984,0,0,1,9,9v86.21484A9.00984,9.00984,0,0,1,107.10742,116.10742ZM20.89258,13.89258a7.00848,7.00848,0,0,0-7,7v86.21484a7.00848,7.00848,0,0,0,7,7h86.21484a7.00848,7.00848,0,0,0,7-7V20.89258a7.00848,7.00848,0,0,0-7-7ZM64.01563,79.35742H64a15.25353,15.25353,0,0,1-10.84082-4.48047.99989.99989,0,0,1,1.41211-1.416A13.26954,13.26954,0,0,0,64,77.35742a1.00612,1.00612,0,0,1,1.00781,1A.99278.99278,0,0,1,64.01563,79.35742Zm10.1416-4.21094a1,1,0,0,1-.707-1.707A13.26777,13.26777,0,0,0,77.35742,64a1.02656,1.02656,0,0,1,1-1.03125.97325.97325,0,0,1,1,.96875V64a15.25414,15.25414,0,0,1-4.49316,10.85352A.99675.99675,0,0,1,74.15723,75.14648ZM49.64258,65.01563a.987.987,0,0,1-1-.98536V64a15.25847,15.25847,0,0,1,4.46875-10.83008.9999.9999,0,0,1,1.418,1.41016A13.271,13.271,0,0,0,50.64258,64,1.01288,1.01288,0,0,1,49.64258,65.01563ZM74.11426,54.80957a.9952.9952,0,0,1-.7041-.29A13.27778,13.27778,0,0,0,64,50.64258a1.01969,1.01969,0,0,1-1.02344-1,.98052.98052,0,0,1,.97754-1H64a15.26293,15.26293,0,0,1,10.81836,4.457,1,1,0,0,1-.7041,1.71Zm-38.90039-31.917A12.3353,12.3353,0,0,1,22.89258,35.21387a.99942.99942,0,0,1-1-1V22.89258a.99942.99942,0,0,1,1-1H34.21387A.99942.99942,0,0,1,35.21387,22.89258ZM22.89258,92.78613a.99942.99942,0,0,0-1,1v11.32129a.99942.99942,0,0,0,1,1H34.21387a.99942.99942,0,0,0,1-1A12.3353,12.3353,0,0,0,22.89258,92.78613Zm82.21484-70.89355H93.78613a.99942.99942,0,0,0-1,1,12.3353,12.3353,0,0,0,12.32129,12.32129.99942.99942,0,0,0,1-1V22.89258A.99942.99942,0,0,0,105.10742,21.89258Zm0,71a12.33529,12.33529,0,0,0-12.32129,12.32129.99943.99943,0,0,0,1,1h11.32129a.99942.99942,0,0,0,1-1V93.89258A.99942.99942,0,0,0,105.10742,92.89258ZM35.08887,86.44629V41.55371a3.08887,3.08887,0,1,0-6.17774,0V86.44629a3.08887,3.08887,0,1,0,6.17774,0Zm64,0V41.55371a3.08887,3.08887,0,1,0-6.17774,0V86.44629a3.08887,3.08887,0,1,0,6.17774,0ZM86.44629,28.91113H41.55371a3.08887,3.08887,0,1,0,0,6.17774H86.44629a3.08887,3.08887,0,1,0,0-6.17774Zm0,64H41.55371a3.08887,3.08887,0,1,0,0,6.17774H86.44629a3.08887,3.08887,0,1,0,0-6.17774ZM63.99707,69.03906a5.03883,5.03883,0,1,0-4.998-4.4248A5.07018,5.07018,0,0,0,63.99707,69.03906ZM36.95313,17.41016a.99942.99942,0,0,0-1-1h-.623a1,1,0,0,0,0,2h.623A.99943.99943,0,0,0,36.95313,17.41016Zm-3.40821,0a.99942.99942,0,0,0-1-1h-6.456a1,1,0,0,0,0,2h6.456A.99942.99942,0,0,0,33.54492,17.41016Zm-10.65234,73.376c.33752,0,.66821.02759,1,.05066V37.16321c-.33179.02307-.66248.05066-1,.05066a2.96485,2.96485,0,0,1-1-.18433V90.9704A2.96481,2.96481,0,0,1,22.89258,90.78613Zm14.137-68.89355a2.96481,2.96481,0,0,1,.18427,1c0,.33752-.02759.66821-.05066,1H90.83679c-.02307-.33179-.05066-.66248-.05066-1a2.96481,2.96481,0,0,1,.18427-1Zm68.07782,15.32129c-.33752,0-.66821-.02759-1-.05066v53.78c.33179-.02307.66248-.05066,1-.05066a2.96481,2.96481,0,0,1,1,.18426V37.0296A2.96481,2.96481,0,0,1,105.10742,37.21387Zm-14.1701,68.89355a2.95784,2.95784,0,0,1-.15119-.89355c0-.37348.0279-.74012.05609-1.10645h-53.679c.02307.33179.05066.66248.05066,1a2.96481,2.96481,0,0,1-.18427,1Z"/></g></svg>